<svg width="187" height="187" viewBox="0 0 187 187" fill="none" xmlns="http://www.w3.org/2000/svg">
<g clip-path="url(#clip0_338_6)">
<path fill-rule="evenodd" clip-rule="evenodd" d="M93.5 0C41.8614 0 0 41.8614 0 93.5C0 145.139 41.8614 187 93.5 187C145.139 187 187 145.139 187 93.5C187 41.8614 145.139 0 93.5 0ZM88.847 31.172C90.199 30.39 91.981 30 93.763 30C95.546 30 97.328 30.39 98.679 31.173L145.613 58.269C146.965 59.046 148.195 60.394 149.086 61.939V61.941C149.977 63.484 150.527 65.222 150.527 66.779V120.977C150.527 122.54 149.976 124.277 149.086 125.82C148.195 127.363 146.965 128.712 145.613 129.492L98.679 156.586H98.677C95.975 158.148 91.548 158.148 88.845 156.586L41.914 129.492C40.562 128.71 39.329 127.363 38.439 125.82L38.441 125.818C37.55 124.275 37 122.539 37 120.977V66.78C37 63.66 39.21 59.828 41.914 58.27L88.847 31.172ZM126.535 74.943C119.785 63.279 107.23 56.033 93.765 56.033C72.898 56.033 55.922 73.011 55.922 93.878C55.922 114.745 72.898 131.722 93.765 131.722C107.23 131.722 119.789 124.474 126.535 112.812L110.16 103.335C106.78 109.175 100.5 112.8 93.765 112.8C83.333 112.8 74.843 104.313 74.843 93.879C74.843 83.445 83.333 74.955 93.765 74.955C100.495 74.955 106.783 78.586 110.155 84.422L126.535 74.943ZM127.402 87.57H123.201V91.777H118.994V95.98H123.201V100.187H127.402V95.98H131.605V91.777H127.402V87.57ZM143.174 87.57H138.966V91.777H134.761V95.98H138.966V100.187H143.174V95.98H147.377V91.777H143.174V87.57Z" fill="white"/>
</g>
<defs>
<clipPath id="clip0_338_6">
<rect width="187" height="187" fill="white"/>
</clipPath>
</defs>
</svg>
