<svg width="93" height="125" viewBox="0 0 93 125" fill="none" xmlns="http://www.w3.org/2000/svg">
<path d="M29.6476 96.5332C29.6476 96.5332 24.8806 99.3072 33.0446 100.243C42.9366 101.373 47.9916 101.211 58.8896 99.1512C58.8896 99.1512 61.7606 100.946 65.7626 102.502C41.3236 112.972 10.4546 101.895 29.6476 96.5332ZM26.6596 82.8682C26.6596 82.8682 21.3116 86.8272 29.4826 87.6732C40.0496 88.7642 48.3926 88.8532 62.8366 86.0732C62.8366 86.0732 64.8296 88.0982 67.9686 89.2042C38.4266 97.8442 5.52257 89.8842 26.6596 82.8682Z" fill="white"/>
<path d="M51.8318 59.6841C57.8568 66.6191 50.2518 72.8541 50.2518 72.8541C50.2518 72.8541 65.5408 64.9631 58.5208 55.0771C51.9618 45.8621 46.9338 41.2851 74.1558 25.4971C74.1558 25.4981 31.4248 36.1671 51.8318 59.6841Z" fill="white"/>
<path d="M84.1537 106.642C84.1537 106.642 87.6827 109.552 80.2657 111.801C66.1637 116.073 21.5597 117.361 9.17168 111.972C4.72068 110.034 13.0707 107.347 15.6977 106.78C18.4367 106.187 20.0007 106.295 20.0007 106.295C15.0477 102.808 -12.0123 113.145 6.25768 116.11C56.0787 124.186 97.0747 112.473 84.1537 106.642ZM31.9427 68.7071C31.9427 68.7071 9.25668 74.0961 23.9097 76.0551C30.0977 76.8831 42.4277 76.6931 53.9207 75.7291C63.3107 74.9401 72.7337 73.2551 72.7337 73.2551C72.7337 73.2551 69.4257 74.6741 67.0297 76.3081C43.9877 82.3691 -0.514318 79.5461 12.2987 73.3501C23.1307 68.1111 31.9427 68.7071 31.9427 68.7071ZM72.6397 91.4541C96.0607 79.2871 85.2307 67.5941 77.6717 69.1691C75.8237 69.5541 74.9947 69.8891 74.9947 69.8891C74.9947 69.8891 75.6827 68.8101 76.9947 68.3461C91.9477 63.0911 103.446 83.8491 72.1717 92.0711C72.1717 92.0691 72.5307 91.7441 72.6397 91.4541Z" fill="white"/>
<path d="M58.5214 0C58.5214 0 71.4894 12.976 46.2184 32.923C25.9524 48.929 41.5974 58.053 46.2114 68.482C34.3804 57.809 25.7024 48.412 31.5234 39.667C40.0714 26.833 63.7524 20.608 58.5214 0Z" fill="white"/>
<path d="M34.2447 124.434C56.7207 125.871 91.2447 123.634 92.0617 112.998C92.0617 112.998 90.4907 117.03 73.4847 120.229C54.2987 123.841 30.6307 123.42 16.5977 121.103C16.5977 121.104 19.4727 123.484 34.2447 124.434Z" fill="white"/>
</svg>
