<svg width="122" height="123" viewBox="0 0 122 123" fill="none" xmlns="http://www.w3.org/2000/svg">
<path d="M45.8466 59.1851H75.0056C83.1226 59.1851 89.5166 52.3171 89.5166 44.1661V16.3681C89.5166 8.45607 82.8846 2.51207 74.9616 1.19207C69.9476 0.357068 64.7666 -0.022932 59.7746 0.00106797C54.7846 0.024068 50.1626 0.449068 45.9696 1.19207C33.6146 3.37307 31.5166 7.94307 31.5166 16.3681V27.1851H60.5166V31.1851H20.2926C11.8086 31.1851 4.37862 36.2931 2.05562 45.9961C-0.625383 57.1161 -0.744383 63.9151 2.05562 75.5261C4.13062 84.1681 9.08562 90.1851 17.5706 90.1851H27.5166V77.1371C27.5166 67.5001 35.9446 59.1851 45.8466 59.1851ZM44.0086 20.0751C40.9826 20.0751 38.5306 17.5961 38.5306 14.5301C38.5306 11.4511 40.9816 8.94907 44.0086 8.94907C47.0236 8.94907 49.4876 11.4511 49.4876 14.5301C49.4866 17.5961 47.0226 20.0751 44.0086 20.0751ZM118.798 45.9961C116.7 37.5481 112.695 31.1851 104.199 31.1851H93.5166V44.1661C93.5166 54.2161 84.7226 62.1851 75.0056 62.1851H45.8466C37.8586 62.1851 31.5166 69.5111 31.5166 77.5111V105.311C31.5166 113.221 38.2616 117.875 45.9786 120.145C55.2206 122.862 63.9726 123.353 75.0296 120.145C82.3786 118.016 89.5166 113.734 89.5166 105.311V94.1851H60.5166V90.1851H104.199C112.683 90.1851 115.846 84.4091 118.798 75.5251C121.845 66.3801 121.714 57.7261 118.798 45.9961ZM76.8426 101.602C79.8696 101.602 82.3216 104.081 82.3216 107.149C82.3216 110.225 79.8706 112.728 76.8426 112.728C73.8276 112.728 71.3646 110.226 71.3646 107.149C71.3646 104.081 73.8276 101.602 76.8426 101.602Z" fill="white"/>
</svg>
